# xmcd
#
# Track frame offsets: 
#        150
#        17212
#        32967
#        49135
#        56247
#        68514
#        78766
#        102057
#        117017
#        140764
#        164715
#        182063
#        200306
#        241105
#        259560
#        281731
#
# Disc length: 3849 seconds
#
# Revision: 0
# Processed by: cddbd v1.5.2PL0 Copyright (c) Steve Scherf et al.
# Submitted via: ExactAudioCopy v0.99pb5
#
DISCID=de0f0710
DTITLE=George Harrison and Jeff Lynne  - Complete Rarities 
DYEAR=1900
DGENRE=
TTITLE0=Johnny B. Goode
TTITLE1=That's The Way It Goes (Remix)
TTITLE2=Hottest Gong In Town
TTITLE3=Hottest Gong In Town ('' Handmade In Hong Kong'' Shangai Surpr
TTITLE3=ise Documentary version)
TTITLE4=Zig Zag
TTITLE5=Zig Zag (Movie Version)
TTITLE6=While My Guitar Gently Weeps (Prince's Trust)
TTITLE7=Here Comes the Sun (Prince's Trust)
TTITLE8=When We Was Fab (Reverse End)
TTITLE9=Got My Mind Set On You (Extended Version)
TTITLE10=That's What It Takes (Rough Mix)
TTITLE11=When We Was Fab (Rough Mix)
TTITLE12=Rockline Medley
TTITLE13=Cheer Down
TTITLE14=Cheer Down (Movie Version)
TTITLE15=Interview
EXTD=
EXTT0=
EXTT1=
EXTT2=
EXTT3=
EXTT4=
EXTT5=
EXTT6=
EXTT7=
EXTT8=
EXTT9=
EXTT10=
EXTT11=
EXTT12=
EXTT13=
EXTT14=
EXTT15=
PLAYORDER=
